# xmcd
#
# Track frame offsets:
#	150
#	13663
#	31161
#	42678
#	52974
#	64504
#	82809
#	93131
#	106758
#	119107
#	129188
#	142476
#	153346
#	162275
#	172203
#	188700
#	199864
#	210673
#	226747
#	237572
#
# Disc length: 3319 seconds
#
# Revision: 0
# Processed by: cddbd v1.5.2PL0 Copyright (c) Steve Scherf et al.
# Submitted via: EasyCDDAExtractor 12.1.0.1
#
DISCID=100cf514
DTITLE=John Lee Hooker - Mr Boogie Man
DYEAR=1900
DGENRE=
TTITLE0=Baby Lee
TTITLE1=Blues Before Sunrise
TTITLE2=Boom Boom
TTITLE3=Dimples
TTITLE4=Hard Hearted Woman
TTITLE5=House Rent Boogie
TTITLE6=I Wanna Walk
TTITLE7=I'm Goin' Upstairs
TTITLE8=I'm In The Mood
TTITLE9=I'm Leaving Baby
TTITLE10=I'm So Excited
TTITLE11=Let's Make It
TTITLE12=Lost A Good Girl
TTITLE13=Onions
TTITLE14=Process
TTITLE15=Send Me Your Pillow
TTITLE16=She's Mine (Keep Your Hands To Youself)
TTITLE17=Thelma
TTITLE18=Want Ad Blues
TTITLE19=What Do You Say
EXTD=
EXTT0=
EXTT1=
EXTT2=
EXTT3=
EXTT4=
EXTT5=
EXTT6=
EXTT7=
EXTT8=
EXTT9=
EXTT10=
EXTT11=
EXTT12=
EXTT13=
EXTT14=
EXTT15=
EXTT16=
EXTT17=
EXTT18=
EXTT19=
PLAYORDER=
